<?xml version="1.0" encoding="UTF-8" ?>
<!DOCTYPE svg PUBLIC "-//W3C//DTD SVG 1.1//EN" "http://www.w3.org/Graphics/SVG/1.1/DTD/svg11.dtd">
<svg width="612pt" height="408pt" viewBox="0 0 612 408" version="1.1" xmlns="http://www.w3.org/2000/svg">
<g id="#ffffffff">
<path fill="#ffffff" opacity="1.00" d=" M 0.00 0.00 L 612.00 0.00 L 612.00 408.00 L 0.00 408.00 L 0.00 0.00 M 237.87 98.30 C 218.18 102.86 201.11 116.68 192.18 134.77 C 188.57 126.10 182.79 118.39 175.42 112.55 C 161.59 101.51 143.45 97.32 126.02 97.75 C 108.87 98.45 91.59 106.63 81.99 121.18 C 75.40 130.98 72.54 143.66 75.87 155.15 C 78.10 163.20 84.42 169.78 91.89 173.25 C 95.81 175.18 100.66 174.79 104.35 172.57 C 106.05 169.32 109.00 165.39 106.40 161.83 C 108.95 154.20 106.54 144.84 112.60 138.55 C 122.74 130.30 137.58 130.50 149.02 135.87 C 156.98 139.58 162.85 148.00 162.54 156.93 C 162.58 161.73 159.90 166.26 156.23 169.21 C 149.85 173.62 142.55 176.54 135.08 178.49 C 124.83 181.53 114.70 185.18 105.24 190.21 C 95.34 195.52 86.47 203.72 82.48 214.42 C 79.30 222.80 79.92 233.10 85.95 240.07 C 88.85 242.90 92.54 244.72 96.05 246.66 C 96.73 245.65 97.38 244.62 98.03 243.60 C 89.89 241.12 84.51 232.20 85.39 223.86 C 85.01 232.31 90.41 240.74 98.62 243.26 C 101.74 243.28 104.86 243.29 107.97 243.29 C 108.11 242.78 108.37 241.76 108.50 241.25 C 107.65 241.25 105.95 241.23 105.10 241.23 C 109.43 240.48 113.70 239.12 118.15 239.25 C 115.34 240.40 112.27 240.59 109.30 240.99 C 109.95 241.54 110.60 242.08 111.26 242.63 C 114.70 241.97 118.11 241.13 121.53 240.34 C 125.40 239.44 129.37 240.22 133.24 240.71 C 135.70 241.68 138.40 241.31 140.93 241.95 C 142.26 242.35 143.61 242.72 144.92 243.23 C 148.74 243.42 152.58 244.70 156.39 243.88 C 152.16 243.12 147.93 242.18 143.61 242.10 C 146.31 240.60 149.10 239.06 152.30 239.43 L 149.07 238.78 C 150.95 237.94 153.00 238.59 154.97 238.51 C 158.76 238.61 162.45 237.51 165.89 235.98 C 168.80 234.71 171.71 233.33 174.12 231.20 C 169.08 233.03 164.29 235.81 158.85 236.31 C 154.64 237.11 150.38 236.30 146.15 236.14 C 145.99 235.74 145.66 234.95 145.50 234.55 C 147.55 234.92 149.60 235.28 151.66 235.62 C 151.65 235.12 151.64 234.12 151.63 233.62 C 149.86 233.72 148.08 233.80 146.30 233.87 C 146.39 233.48 146.57 232.70 146.67 232.32 C 144.65 232.61 142.62 232.87 140.62 233.23 C 141.91 233.39 144.49 233.70 145.78 233.86 C 145.10 234.35 144.42 234.85 143.74 235.33 C 138.73 233.92 133.60 232.84 128.40 232.52 L 128.73 230.50 C 126.26 233.76 121.46 231.71 117.93 232.93 C 118.19 232.38 118.70 231.29 118.96 230.75 C 117.69 230.51 116.42 230.26 115.15 230.02 C 115.31 230.57 115.61 231.68 115.76 232.24 C 114.92 231.73 114.07 231.22 113.22 230.72 C 111.38 231.46 109.53 230.85 107.71 230.44 C 105.27 228.73 103.24 226.44 103.09 223.32 C 104.76 221.49 100.89 218.58 103.63 217.74 L 104.21 217.42 L 104.85 217.23 C 104.90 219.47 104.24 221.58 103.23 223.56 L 104.70 223.78 L 104.20 225.72 L 105.50 225.27 C 105.07 226.73 105.42 227.92 106.54 228.85 C 108.22 228.83 109.26 227.35 110.58 226.55 C 106.67 224.78 107.27 220.38 107.37 216.86 C 107.75 219.88 107.42 223.65 110.28 225.59 C 112.97 227.98 116.79 226.76 119.78 225.71 C 128.02 222.78 136.57 226.12 144.76 227.47 L 144.00 228.74 C 145.35 227.11 147.59 227.72 149.43 227.51 L 149.55 228.45 C 153.25 228.32 157.05 228.67 160.62 227.49 C 156.09 227.12 151.19 227.73 147.01 225.64 C 146.35 225.63 145.05 225.63 144.39 225.62 C 144.39 224.54 144.38 223.47 144.36 222.39 C 147.90 223.56 151.81 224.23 155.46 223.14 C 149.11 222.12 142.87 220.53 136.53 219.41 L 136.55 218.57 C 134.31 218.63 132.07 218.62 129.84 218.75 C 130.47 218.23 131.74 217.21 132.38 216.69 C 131.29 216.90 129.11 217.32 128.02 217.53 L 128.69 216.30 C 127.55 216.29 126.43 216.30 125.30 216.34 C 126.16 217.02 127.02 217.70 127.83 218.44 L 124.29 217.25 L 124.55 218.86 C 122.74 219.09 121.03 218.63 119.80 217.24 C 120.72 217.31 122.55 217.44 123.47 217.51 C 123.47 216.03 124.30 214.84 125.78 214.50 C 137.82 210.31 150.69 208.63 162.34 203.29 C 165.70 201.72 169.12 200.27 172.36 198.47 C 177.28 195.73 181.25 191.67 185.31 187.83 C 187.13 196.42 190.21 204.71 194.43 212.41 C 201.91 226.47 214.19 238.22 229.15 243.98 C 235.79 244.93 242.17 247.45 248.93 247.60 C 257.89 248.01 267.05 247.02 275.25 243.20 C 271.08 243.81 267.20 245.62 263.04 246.32 C 254.81 247.45 246.66 245.59 238.48 244.98 C 239.14 244.67 240.45 244.06 241.11 243.75 C 240.98 243.62 240.71 243.36 240.57 243.23 C 233.43 241.28 226.66 238.21 220.31 234.43 C 220.62 234.45 221.23 234.47 221.53 234.49 C 229.09 239.96 238.42 241.88 247.37 243.82 C 246.35 243.93 244.31 244.14 243.28 244.25 C 243.23 244.48 243.12 244.92 243.07 245.15 C 244.88 244.90 246.69 244.61 248.50 244.37 L 248.41 243.48 C 257.72 244.82 266.97 242.58 275.82 239.85 C 277.46 239.25 279.17 238.75 280.68 237.82 L 280.20 236.56 C 282.16 236.06 284.10 235.52 286.06 235.03 C 287.88 233.48 289.83 232.09 291.92 230.92 C 293.03 229.83 294.09 228.70 295.15 227.56 C 296.20 227.24 297.26 226.92 298.30 226.56 C 296.01 226.40 294.01 227.29 292.51 229.08 C 292.62 228.33 292.83 226.83 292.93 226.08 C 299.35 221.55 304.68 215.21 308.03 208.11 C 304.33 214.77 299.34 220.72 293.33 225.41 C 292.19 226.65 289.69 227.92 292.83 229.87 C 291.22 227.51 289.01 228.56 287.37 229.63 C 288.85 228.99 290.46 228.75 291.75 229.91 C 288.09 231.68 284.81 234.09 281.29 236.10 L 279.93 232.86 L 283.30 234.15 L 280.65 231.40 C 281.74 231.84 283.92 232.73 285.01 233.18 L 283.00 230.73 C 283.87 230.97 285.62 231.45 286.49 231.69 C 285.65 231.05 283.97 229.78 283.13 229.15 C 284.11 229.30 286.06 229.60 287.03 229.76 C 286.78 229.37 286.28 228.61 286.03 228.23 C 293.42 223.25 299.58 216.62 304.19 209.01 C 302.49 210.70 300.82 212.43 299.12 214.12 C 296.80 217.24 293.85 219.79 290.86 222.25 C 290.21 221.90 288.90 221.20 288.25 220.85 C 288.81 221.32 289.91 222.26 290.47 222.73 C 281.64 229.39 271.41 234.41 260.35 235.81 C 260.58 235.27 261.03 234.19 261.26 233.65 C 263.04 233.93 264.83 234.10 266.64 234.14 L 266.59 232.90 C 265.60 232.89 263.61 232.85 262.61 232.84 C 264.90 230.77 267.85 233.51 270.42 232.47 C 277.01 229.96 283.90 227.21 288.61 221.70 C 284.89 223.54 281.73 226.32 277.92 227.99 C 275.92 229.40 273.72 230.47 271.34 229.21 C 271.52 229.70 271.88 230.69 272.06 231.18 C 271.07 230.91 269.08 230.37 268.09 230.10 L 270.35 232.00 C 266.20 230.70 262.36 232.74 258.25 232.55 L 258.81 233.89 L 257.92 233.94 L 256.99 233.95 C 254.87 233.84 252.76 233.73 250.64 233.68 C 251.82 233.25 253.01 232.82 254.21 232.40 C 250.65 231.26 247.19 232.67 243.64 232.63 C 244.40 232.49 245.92 232.20 246.68 232.06 L 246.82 231.46 C 243.90 230.14 238.72 230.47 238.87 225.91 L 236.67 229.30 C 236.86 228.85 237.24 227.96 237.43 227.51 C 234.33 228.35 232.43 225.62 230.05 224.30 C 231.64 224.99 233.25 225.67 234.86 226.33 C 234.39 225.10 233.92 223.89 233.43 222.68 C 233.88 222.97 234.77 223.56 235.22 223.85 C 244.55 229.07 255.85 229.38 266.06 226.91 C 264.84 226.38 263.66 225.14 262.21 225.78 C 255.69 227.18 248.85 226.81 242.63 224.37 C 243.42 224.45 245.01 224.60 245.80 224.68 L 245.76 223.53 C 244.78 223.22 242.82 222.61 241.84 222.30 C 247.20 223.43 252.69 223.56 258.08 224.49 C 254.88 224.65 251.67 224.37 248.47 224.41 C 253.26 227.17 259.19 225.27 264.31 224.32 C 262.39 224.01 260.47 223.76 258.60 223.21 C 262.15 223.19 265.67 223.76 269.22 223.82 L 265.03 225.07 C 265.80 225.53 266.58 226.00 267.36 226.46 C 269.69 225.44 272.11 224.62 274.62 224.22 L 274.42 223.68 C 279.73 220.36 285.41 217.00 289.07 211.80 C 285.77 213.75 283.24 217.87 279.03 217.60 C 280.00 216.49 281.15 215.57 282.31 214.68 C 281.37 214.92 279.49 215.40 278.55 215.65 C 281.03 213.05 283.69 210.65 286.13 208.01 C 281.49 211.86 276.81 215.79 271.22 218.19 C 270.63 217.79 269.45 216.97 268.86 216.56 C 269.39 217.22 270.44 218.53 270.96 219.18 C 269.02 219.38 267.08 219.69 265.12 219.55 L 265.48 220.72 C 264.06 220.57 262.64 220.43 261.23 220.28 L 261.61 221.57 C 255.80 222.33 249.99 221.90 244.23 220.98 C 245.11 220.35 246.00 219.72 246.89 219.11 C 236.80 216.94 228.05 210.17 222.71 201.42 C 213.90 184.42 213.81 162.68 224.34 146.41 C 230.44 136.71 241.69 130.99 252.98 130.40 C 259.51 130.06 266.70 130.73 271.89 135.12 C 281.00 141.75 286.18 152.84 286.65 163.97 C 286.78 169.07 287.06 174.26 288.68 179.13 C 290.38 183.60 294.25 186.58 297.03 190.31 C 298.36 190.27 299.68 190.21 301.02 190.12 C 303.25 191.01 305.56 193.69 308.04 192.08 C 315.04 188.60 317.98 180.57 320.11 173.55 C 323.93 174.99 328.16 174.65 331.78 172.82 C 333.77 170.69 334.32 167.65 335.51 165.06 C 332.99 161.59 335.69 157.78 335.60 154.03 C 335.69 147.98 336.76 140.86 342.13 137.16 C 349.70 132.21 359.37 130.92 368.12 132.95 C 373.95 134.22 379.82 136.55 383.93 141.04 C 389.27 146.48 391.97 154.99 389.29 162.32 C 386.04 170.13 377.45 173.18 370.25 176.23 C 356.10 180.60 341.57 184.69 328.92 192.65 C 322.38 196.68 316.79 202.23 312.88 208.85 C 310.83 212.36 309.72 216.29 308.16 220.02 C 302.43 225.32 297.30 231.40 290.51 235.41 C 286.52 238.27 281.64 239.65 277.91 242.90 C 290.13 238.45 300.26 229.83 308.62 220.08 C 308.17 224.76 308.18 229.66 310.11 234.05 C 312.77 241.04 319.79 245.64 326.91 247.06 C 338.10 249.01 348.60 242.47 359.78 243.82 L 359.75 243.15 C 351.69 242.63 343.94 244.93 336.07 246.08 C 331.82 245.44 327.05 246.49 323.21 244.22 C 326.38 244.68 329.59 245.80 332.77 244.58 C 331.15 244.45 327.91 244.20 326.29 244.07 L 326.36 243.05 C 329.71 243.35 333.07 243.27 336.43 243.36 C 336.27 242.92 335.96 242.05 335.80 241.62 C 335.38 241.33 334.54 240.76 334.13 240.48 C 340.42 239.85 346.86 238.89 352.78 236.59 C 355.32 236.35 357.86 236.19 360.42 236.27 C 358.65 236.74 356.85 237.08 355.08 237.51 C 358.71 238.23 362.29 237.23 365.87 236.75 C 364.59 237.52 363.28 238.27 361.97 238.99 C 363.21 238.82 365.69 238.48 366.93 238.31 L 366.73 240.51 C 365.77 240.45 363.86 240.34 362.90 240.28 C 360.01 239.31 356.97 238.86 353.96 238.53 C 347.96 237.90 342.40 241.07 336.41 240.80 C 336.94 241.45 337.48 242.11 338.02 242.76 C 341.69 242.16 345.31 241.30 348.92 240.43 C 353.01 239.40 357.21 240.22 361.32 240.69 C 363.64 242.00 366.36 241.33 368.87 241.25 L 368.30 242.28 C 373.62 242.92 378.97 244.76 384.37 243.89 C 380.37 243.25 376.41 242.17 372.32 242.28 L 372.25 240.07 C 372.88 240.31 374.14 240.77 374.77 241.00 L 373.61 239.14 C 375.26 239.31 376.93 239.48 378.59 239.65 L 378.22 238.41 C 386.80 239.45 395.40 236.24 402.17 231.11 C 396.65 233.16 391.39 236.22 385.36 236.47 C 379.57 237.46 374.00 235.26 368.28 234.97 C 368.96 234.52 369.64 234.08 370.34 233.64 C 373.26 234.62 376.30 235.18 379.36 235.58 C 379.84 235.11 380.80 234.18 381.29 233.71 C 378.63 233.80 375.97 233.83 373.32 233.67 L 373.78 232.39 C 372.51 232.55 369.97 232.87 368.70 233.03 C 369.33 232.55 370.59 231.61 371.22 231.14 C 368.88 231.49 366.54 231.92 364.25 232.49 C 364.10 232.00 363.82 231.00 363.67 230.51 C 361.83 230.65 360.00 230.75 358.16 230.82 C 358.13 231.14 358.05 231.78 358.02 232.11 C 360.06 231.60 362.36 231.37 363.77 233.27 C 357.45 232.32 351.07 232.06 344.71 232.74 C 345.55 232.29 347.22 231.41 348.06 230.96 C 346.41 230.66 344.77 230.35 343.13 230.03 C 343.29 230.58 343.60 231.68 343.75 232.22 C 342.93 231.72 342.11 231.22 341.30 230.72 C 339.09 231.60 336.99 231.33 334.99 229.93 C 335.67 229.73 337.02 229.32 337.70 229.12 C 337.66 228.44 337.60 227.07 337.57 226.39 C 335.12 224.05 333.65 220.07 335.37 216.91 C 334.91 220.33 335.51 224.47 338.86 226.25 C 343.66 228.55 348.25 224.49 353.08 224.54 C 358.77 224.53 364.49 225.44 369.90 227.20 C 371.93 227.39 373.96 227.58 375.99 227.87 C 380.34 228.90 385.07 228.61 389.22 226.90 C 385.65 225.11 381.56 224.92 377.66 225.39 C 380.88 226.18 384.82 224.66 387.45 227.13 C 383.31 227.39 378.76 227.53 374.94 225.66 C 374.30 225.66 373.00 225.64 372.35 225.64 C 372.37 224.54 372.39 223.44 372.40 222.34 C 378.81 225.21 386.02 223.05 392.10 220.38 C 388.59 221.56 385.03 222.66 381.32 223.04 C 381.23 222.48 381.05 221.37 380.96 220.81 C 380.90 221.31 380.76 222.32 380.70 222.82 C 374.83 221.56 368.91 220.47 363.13 218.84 C 360.56 218.47 357.95 218.51 355.38 218.84 C 356.77 218.33 358.18 217.85 359.55 217.28 C 356.58 216.93 353.74 217.74 351.00 218.76 C 349.52 219.64 348.59 217.84 347.70 217.03 C 348.95 217.20 350.21 217.38 351.47 217.57 C 351.61 216.95 351.91 215.71 352.05 215.09 C 361.10 211.56 370.77 210.05 379.99 207.05 C 386.43 205.26 392.43 202.25 398.44 199.39 C 411.17 192.70 420.45 180.06 423.27 165.96 C 428.30 171.13 435.56 176.56 443.14 173.69 C 447.22 173.04 447.43 168.09 449.07 165.11 C 448.37 163.43 447.41 161.69 448.20 159.85 C 449.67 154.65 448.62 149.03 450.77 143.99 C 451.75 140.03 454.96 137.07 458.58 135.45 C 468.65 130.42 480.93 131.24 490.89 136.14 C 498.59 139.98 504.22 148.28 503.85 157.02 C 503.90 162.88 499.97 168.25 494.92 170.94 C 485.14 177.05 473.59 178.87 462.94 182.86 C 455.58 185.88 448.07 188.76 441.48 193.29 C 434.03 198.12 427.75 204.97 424.28 213.19 C 420.72 221.78 420.94 232.51 427.09 239.90 C 427.74 240.84 428.63 241.44 429.76 241.68 L 429.44 242.16 C 432.30 243.68 434.94 245.77 438.14 246.57 C 443.96 247.99 450.25 247.66 455.81 245.32 C 451.50 245.37 447.23 245.79 442.96 246.24 L 443.95 243.97 C 442.36 244.12 440.78 244.29 439.21 244.48 L 439.53 242.95 C 442.95 243.35 446.39 243.40 449.83 243.17 L 449.90 242.70 L 449.89 242.04 C 449.15 241.82 447.68 241.37 446.95 241.15 C 453.23 240.09 459.39 238.42 465.68 237.36 L 465.39 236.42 C 468.28 236.41 471.17 236.35 474.07 236.46 C 472.52 236.86 470.99 237.31 469.47 237.79 C 473.08 238.22 476.52 236.87 480.09 236.68 C 478.69 237.42 477.29 238.16 475.88 238.89 C 478.83 238.61 481.74 238.04 484.67 237.63 C 483.39 238.52 482.11 239.38 480.83 240.23 C 484.34 239.48 487.80 238.48 491.36 237.94 C 490.53 238.71 489.70 239.49 488.89 240.27 C 490.17 239.73 491.46 239.16 492.73 238.59 C 501.57 239.25 510.04 235.56 516.90 230.24 C 513.24 232.22 509.21 233.43 505.62 235.54 C 504.32 235.13 503.05 234.65 501.84 234.07 C 505.52 233.45 509.07 232.14 512.19 230.08 C 507.56 232.14 502.66 233.57 497.70 234.54 C 499.11 234.76 502.49 234.00 501.44 236.40 C 496.74 236.42 491.45 237.43 487.18 235.27 C 489.60 234.75 492.24 235.91 494.56 234.76 C 492.13 234.29 489.68 233.94 487.24 233.61 C 487.39 233.26 487.70 232.54 487.85 232.19 C 485.89 232.57 483.85 232.79 482.16 233.92 L 485.85 233.85 C 485.82 234.09 485.76 234.56 485.74 234.80 C 482.53 234.93 479.40 233.96 476.30 233.29 C 478.55 232.95 481.34 233.59 483.06 231.66 C 481.41 231.84 478.11 232.20 476.46 232.39 C 477.83 231.11 479.73 230.80 481.41 230.12 C 478.14 230.43 474.88 230.72 471.66 231.31 C 468.60 229.01 464.64 229.53 461.07 229.64 C 461.25 230.03 461.60 230.80 461.77 231.18 C 464.18 231.24 466.58 230.88 469.00 230.92 C 469.71 231.55 470.23 232.35 470.56 233.31 C 467.09 231.23 462.83 232.65 459.05 232.95 C 459.33 232.34 459.90 231.14 460.18 230.54 C 457.72 230.36 455.23 230.55 452.80 230.90 C 453.33 230.35 454.38 229.25 454.91 228.70 C 454.02 228.65 452.25 228.56 451.37 228.51 L 451.29 225.27 C 455.81 229.30 461.07 224.73 465.99 224.60 C 471.72 224.52 477.58 225.21 483.00 227.16 C 489.13 227.57 495.44 229.56 501.49 227.50 C 496.96 227.17 492.22 227.44 487.96 225.62 C 487.33 225.63 486.06 225.64 485.42 225.65 C 485.41 224.54 485.40 223.44 485.38 222.33 C 491.83 225.05 498.95 223.30 505.02 220.46 C 501.53 221.49 498.02 223.15 494.29 222.68 C 490.68 222.20 487.16 221.18 483.53 220.86 C 484.78 220.27 486.03 219.68 487.29 219.07 C 484.42 219.58 481.53 220.02 478.62 220.18 C 479.63 219.69 481.65 218.72 482.65 218.23 C 479.20 218.66 475.70 218.81 472.22 218.73 C 474.09 218.25 475.97 217.76 477.85 217.27 C 476.02 217.35 474.20 217.45 472.39 217.57 C 472.43 217.23 472.51 216.54 472.54 216.20 C 470.54 217.62 468.06 217.68 465.71 217.59 C 465.60 216.94 465.37 215.63 465.26 214.97 C 477.12 211.04 489.54 208.97 501.19 204.39 C 507.92 201.32 515.02 198.63 520.51 193.49 C 531.02 184.86 537.27 171.52 537.61 157.97 C 538.34 140.81 530.56 123.50 517.05 112.86 C 503.70 101.90 486.08 97.68 469.09 97.68 C 461.10 97.85 453.15 99.48 445.82 102.67 C 433.32 107.90 423.05 118.26 418.25 130.96 C 413.56 121.76 406.26 113.98 397.47 108.57 C 384.62 100.31 369.01 97.54 353.95 97.74 C 335.94 98.35 318.06 107.45 308.48 122.99 C 300.04 110.93 287.15 102.25 272.99 98.39 C 261.52 95.40 249.41 96.01 237.87 98.30 M 109.18 229.00 C 109.93 229.94 112.22 230.21 112.80 229.03 C 112.00 228.20 109.68 227.71 109.18 229.00 M 244.36 229.10 C 244.35 230.48 246.67 230.83 247.56 230.06 C 247.49 228.77 245.24 228.35 244.36 229.10 M 119.54 231.07 C 122.22 231.16 124.90 231.14 127.58 231.27 C 127.65 230.88 127.79 230.09 127.87 229.70 C 125.14 229.99 121.40 228.37 119.54 231.07 M 346.67 230.00 C 349.21 231.04 351.98 231.11 354.67 231.44 C 355.41 230.89 356.14 230.33 356.86 229.76 C 353.46 229.58 350.03 229.31 346.67 230.00 M 129.47 231.33 C 130.99 231.58 132.53 231.81 134.07 232.02 C 135.93 232.44 137.78 232.85 139.63 233.34 C 140.43 232.81 141.21 232.26 141.96 231.68 C 139.81 231.72 137.67 231.80 135.53 231.81 L 135.63 230.40 C 133.57 230.70 131.50 230.94 129.47 231.33 M 452.15 240.88 C 452.18 241.10 452.24 241.56 452.27 241.78 C 454.38 243.11 456.90 241.52 459.14 241.23 C 464.59 239.38 470.46 239.69 475.95 241.19 C 477.82 241.83 479.83 241.59 481.54 240.63 C 479.47 240.38 477.37 240.37 475.30 240.50 L 475.62 239.61 C 471.40 239.41 467.25 237.90 463.02 238.64 C 459.38 239.31 455.79 240.21 452.15 240.88 M 117.94 244.42 C 113.67 245.56 109.21 245.41 104.87 246.15 C 102.44 245.68 99.97 245.42 97.51 245.22 C 97.61 245.75 97.81 246.80 97.91 247.33 C 105.41 247.71 112.89 246.66 120.09 244.58 C 124.09 243.40 128.31 244.18 132.34 243.39 C 127.54 243.03 122.60 243.04 117.94 244.42 M 97.47 244.83 C 101.67 245.09 105.90 244.84 110.08 244.39 C 105.91 244.52 101.49 243.44 97.47 244.83 M 75.00 286.88 C 75.05 294.29 74.91 301.71 75.03 309.13 C 74.98 310.18 75.50 310.86 76.59 311.15 C 76.81 307.21 76.73 303.27 76.75 299.33 C 81.69 299.30 86.63 299.35 91.57 299.31 C 91.58 303.09 91.57 306.86 91.60 310.64 L 93.37 310.62 C 93.36 302.74 93.37 294.86 93.36 286.98 L 91.58 286.96 C 91.59 290.55 91.58 294.14 91.59 297.73 C 86.63 297.75 81.67 297.77 76.71 297.72 C 76.74 294.15 76.73 290.59 76.74 287.02 L 75.00 286.88 M 119.27 289.11 C 116.23 296.45 112.88 303.67 110.12 311.13 C 113.68 310.15 113.69 305.68 115.25 302.92 C 119.04 302.86 122.84 302.86 126.63 302.95 C 127.67 305.50 128.76 308.03 129.81 310.58 C 130.30 310.62 131.27 310.71 131.76 310.75 C 128.42 302.94 125.40 294.95 121.70 287.31 C 120.85 285.38 119.63 288.29 119.27 289.11 M 148.59 286.93 C 148.56 294.84 148.59 302.76 148.59 310.68 L 150.38 310.61 C 150.36 307.65 150.35 304.69 150.37 301.73 C 154.17 301.45 158.27 302.52 161.84 300.86 C 166.90 297.88 166.16 289.33 160.60 287.34 C 156.67 286.51 152.58 287.12 148.59 286.93 M 182.61 286.92 C 182.61 294.86 182.60 302.80 182.63 310.74 L 184.38 310.59 C 184.38 307.63 184.39 304.67 184.44 301.72 C 187.99 301.57 191.71 302.26 195.16 301.19 C 200.72 298.79 200.54 289.88 195.05 287.50 C 191.03 286.38 186.74 287.16 182.61 286.92 M 214.10 286.67 C 216.88 291.77 220.40 296.42 223.23 301.49 C 223.70 304.50 223.36 307.59 223.45 310.64 L 225.24 310.65 C 225.32 307.61 224.88 304.49 225.49 301.50 C 228.24 296.38 231.89 291.80 234.60 286.64 C 234.05 286.83 232.95 287.21 232.40 287.40 C 229.53 291.41 227.11 295.74 224.41 299.88 C 221.47 295.92 219.24 291.49 216.32 287.53 C 215.76 287.32 214.65 286.89 214.10 286.67 M 273.44 287.12 C 273.30 295.01 273.40 302.92 273.41 310.82 C 273.86 310.72 274.75 310.53 275.19 310.44 C 275.14 303.82 275.13 297.20 275.19 290.59 C 278.87 294.72 282.17 299.17 285.67 303.45 C 287.93 306.15 289.77 309.30 292.72 311.36 C 293.38 303.20 292.88 295.01 293.02 286.84 C 292.57 286.89 291.67 287.00 291.23 287.05 C 291.25 293.87 291.29 300.70 291.20 307.52 C 285.55 300.73 280.30 293.61 274.58 286.88 C 274.29 286.94 273.72 287.06 273.44 287.12 M 312.44 286.96 C 312.50 294.86 312.46 302.76 312.46 310.67 C 317.83 310.65 323.21 310.75 328.58 310.58 C 328.45 310.19 328.18 309.42 328.05 309.03 C 323.44 309.03 318.82 309.06 314.21 308.96 C 314.20 305.74 314.20 302.52 314.23 299.31 C 318.23 299.25 322.24 299.26 326.25 299.29 L 326.28 297.80 C 322.26 297.79 318.24 297.79 314.23 297.77 C 314.20 294.69 314.20 291.61 314.23 288.53 C 318.82 288.56 323.41 288.55 328.00 288.55 L 328.00 286.95 C 322.81 286.95 317.63 286.94 312.44 286.96 M 343.57 286.53 C 346.62 294.69 350.36 302.57 353.61 310.64 C 354.06 310.63 354.94 310.60 355.39 310.58 C 357.03 306.58 358.70 302.58 360.53 298.66 C 362.27 302.65 363.95 306.67 365.66 310.67 C 366.07 310.67 366.88 310.66 367.29 310.66 C 370.68 302.64 374.25 294.69 377.49 286.61 C 376.98 286.78 375.96 287.13 375.45 287.30 C 372.27 294.23 369.54 301.37 366.53 308.39 C 364.76 304.68 363.19 300.89 361.56 297.12 C 362.97 293.67 364.49 290.25 365.75 286.74 C 362.16 287.84 362.32 292.67 360.41 295.43 C 358.63 292.60 358.77 287.86 355.18 286.69 C 356.41 290.22 357.96 293.63 359.39 297.08 C 357.80 300.85 356.22 304.64 354.45 308.33 C 351.47 301.38 348.73 294.31 345.57 287.44 C 345.07 287.21 344.07 286.76 343.57 286.53 M 413.63 286.60 C 416.35 291.75 419.93 296.39 422.73 301.49 C 423.31 304.41 422.66 307.46 423.19 310.40 C 423.56 310.55 424.31 310.85 424.69 311.00 C 424.94 307.75 424.31 304.37 425.15 301.20 C 427.93 296.20 431.38 291.60 434.20 286.61 C 433.69 286.77 432.67 287.10 432.16 287.26 C 428.97 291.20 426.70 295.83 423.82 300.00 C 421.38 296.19 419.06 292.29 416.59 288.50 C 415.93 287.39 414.94 286.76 413.63 286.60 M 451.03 286.92 C 451.02 294.84 450.94 302.77 451.08 310.70 C 456.31 310.67 461.54 310.63 466.78 310.71 C 466.82 310.31 466.90 309.51 466.94 309.11 C 462.22 308.98 457.49 309.00 452.76 309.07 C 452.78 305.81 452.79 302.55 452.77 299.29 C 456.21 299.22 459.65 299.35 463.09 299.25 C 464.10 299.29 464.89 298.85 465.47 297.94 C 461.23 297.67 456.99 297.85 452.75 297.75 C 452.78 294.68 452.77 291.62 452.80 288.55 C 457.56 288.51 462.33 288.69 467.10 288.41 C 466.83 288.09 466.29 287.46 466.02 287.14 C 461.04 286.65 456.02 287.10 451.03 286.92 M 492.24 286.95 C 488.73 294.93 485.19 302.92 482.09 311.06 C 485.65 310.13 485.66 305.63 487.25 302.90 C 491.03 302.88 494.81 302.87 498.59 302.92 C 499.63 305.48 500.73 308.03 501.75 310.61 C 502.24 310.64 503.22 310.69 503.71 310.71 C 500.35 302.84 497.17 294.87 493.66 287.06 C 493.30 287.04 492.60 286.98 492.24 286.95 M 520.54 286.93 C 520.58 294.85 520.53 302.76 520.56 310.68 L 522.29 310.61 C 522.28 307.65 522.30 304.69 522.31 301.74 C 525.24 302.25 529.73 300.21 531.21 303.76 C 533.27 306.12 534.04 310.63 537.70 310.81 C 535.89 307.71 533.88 304.73 531.96 301.70 C 537.07 300.21 539.09 293.41 535.55 289.43 C 531.79 285.17 525.47 287.57 520.54 286.93 Z" />
<path fill="#ffffff" opacity="1.00" d=" M 462.11 216.76 C 463.29 216.36 464.88 217.11 465.48 218.19 C 464.91 220.14 461.03 218.56 462.11 216.76 Z" />
<path fill="#ffffff" opacity="1.00" d=" M 239.22 217.83 C 240.70 217.43 242.24 218.29 243.60 218.82 C 243.60 219.12 243.59 219.73 243.59 220.03 C 242.12 219.78 239.63 219.41 239.22 217.83 Z" />
<path fill="#ffffff" opacity="1.00" d=" M 123.60 220.64 C 126.57 220.25 129.58 220.13 132.57 220.30 C 129.66 221.11 126.56 221.32 123.60 220.64 Z" />
<path fill="#ffffff" opacity="1.00" d=" M 353.27 220.16 C 355.19 219.31 357.81 219.31 359.76 220.08 C 358.49 221.17 354.36 221.46 353.27 220.16 Z" />
<path fill="#ffffff" opacity="1.00" d=" M 466.30 220.18 C 468.21 219.29 470.86 219.28 472.80 220.12 C 471.58 221.24 467.45 221.35 466.30 220.18 Z" />
<path fill="#ffffff" opacity="1.00" d=" M 118.63 221.19 C 119.06 221.21 119.93 221.23 120.36 221.25 C 121.56 222.28 120.12 225.15 118.56 224.18 C 118.19 223.29 117.94 221.97 118.63 221.19 Z" />
<path fill="#ffffff" opacity="1.00" d=" M 134.34 221.56 C 135.14 220.91 137.70 220.59 137.68 222.03 C 136.88 222.75 134.32 223.00 134.34 221.56 Z" />
<path fill="#ffffff" opacity="1.00" d=" M 361.35 220.92 C 362.61 220.32 365.01 220.78 365.64 222.04 C 364.37 222.76 361.80 222.44 361.35 220.92 Z" />
<path fill="#ffffff" opacity="1.00" d=" M 473.77 221.18 C 476.34 221.19 478.90 221.41 481.47 221.57 L 481.33 222.58 C 482.17 222.40 483.84 222.05 484.68 221.88 C 483.48 222.62 482.28 223.34 481.12 224.12 L 484.52 223.43 L 484.95 224.73 C 477.92 224.58 471.09 222.23 464.01 222.67 L 464.01 221.73 C 468.76 221.26 473.48 222.13 478.07 223.32 C 478.85 223.23 480.42 223.04 481.20 222.94 C 478.72 222.35 476.21 221.93 473.77 221.18 Z" />
<path fill="#ffffff" opacity="1.00" d=" M 121.37 222.31 C 124.96 221.04 128.86 221.98 132.57 221.74 L 132.65 223.42 C 128.92 222.75 125.12 222.79 121.37 222.31 Z" />
<path fill="#ffffff" opacity="1.00" d=" M 140.34 221.92 C 141.58 221.15 142.31 221.43 142.51 222.78 C 141.26 223.56 140.54 223.28 140.34 221.92 Z" />
<path fill="#ffffff" opacity="1.00" d=" M 346.67 223.17 C 346.79 222.39 347.02 220.81 347.13 220.03 L 347.66 223.21 C 348.47 222.83 350.10 222.06 350.91 221.68 C 354.09 221.65 357.28 221.73 360.47 221.94 L 359.47 223.10 C 356.61 222.99 353.76 222.64 350.89 222.60 C 348.63 223.58 346.28 224.38 343.83 224.68 C 344.76 224.16 345.71 223.66 346.67 223.17 Z" />
<path fill="#ffffff" opacity="1.00" d=" M 368.46 222.05 C 369.66 221.24 370.36 221.53 370.57 222.92 C 369.36 223.73 368.66 223.44 368.46 222.05 Z" />
<path fill="#ffffff" opacity="1.00" d=" M 133.41 222.70 C 136.76 223.77 140.54 222.91 143.70 224.54 C 140.08 224.93 136.52 224.05 132.99 223.36 L 133.41 222.70 Z" />
<path fill="#ffffff" opacity="1.00" d=" M 360.59 223.35 C 364.24 223.24 368.06 223.14 371.48 224.65 C 367.80 224.78 364.14 224.22 360.59 223.35 Z" />
<path fill="#ffffff" opacity="1.00" d=" M 104.60 232.58 C 107.63 231.86 110.79 232.17 113.85 232.55 C 110.77 232.76 107.68 232.89 104.60 232.58 Z" />
<path fill="#ffffff" opacity="1.00" d=" M 445.38 232.60 C 448.61 231.92 451.93 232.21 455.18 232.61 C 451.91 232.82 448.63 232.95 445.38 232.60 Z" />
<path fill="#ffffff" opacity="1.00" d=" M 472.70 232.99 C 472.71 232.72 472.72 232.17 472.72 231.89 C 473.57 231.94 475.27 232.02 476.12 232.07 C 475.41 233.01 474.27 233.32 472.70 232.99 Z" />
<path fill="#ffffff" opacity="1.00" d=" M 365.30 233.54 C 365.77 233.35 366.72 232.96 367.20 232.77 C 368.21 233.36 368.38 234.02 367.72 234.73 C 367.11 234.43 365.90 233.84 365.30 233.54 Z" />
<path fill="#ffffff" opacity="1.00" d=" M 120.30 234.57 C 122.22 234.23 125.60 233.40 126.85 235.06 C 125.03 235.78 121.61 235.79 120.30 234.57 Z" />
<path fill="#ffffff" opacity="1.00" d=" M 348.28 234.84 C 349.92 233.81 353.80 233.76 355.34 235.08 C 353.15 235.89 350.47 235.43 348.28 234.84 Z" />
<path fill="#ffffff" opacity="1.00" d=" M 462.21 234.82 C 463.46 233.88 467.30 233.69 468.38 235.07 C 466.45 235.80 464.11 235.45 462.21 234.82 Z" />
<path fill="#ffffff" opacity="1.00" d=" M 133.33 235.37 C 136.33 233.84 133.43 238.72 133.33 235.37 Z" />
<path fill="#ffffff" opacity="1.00" d=" M 256.27 235.58 C 256.13 234.24 259.74 234.34 259.69 235.68 C 258.53 236.44 257.39 236.41 256.27 235.58 Z" />
<path fill="#ffffff" opacity="1.00" d=" M 269.35 235.30 C 270.24 235.29 272.04 235.27 272.93 235.26 C 274.04 235.98 275.14 236.71 276.28 237.41 C 275.64 236.54 274.37 234.79 273.74 233.91 C 275.11 234.39 277.85 235.36 279.22 235.84 C 278.66 237.07 277.34 237.61 276.34 238.41 C 275.82 238.63 274.78 239.09 274.26 239.32 C 272.48 239.53 270.26 241.17 268.92 239.22 C 269.57 239.08 270.88 238.80 271.54 238.66 C 271.48 238.30 271.35 237.59 271.29 237.23 C 271.91 237.37 273.14 237.67 273.76 237.82 C 273.76 237.50 273.76 236.88 273.77 236.57 C 272.29 236.12 270.82 235.69 269.35 235.30 Z" />
<path fill="#ffffff" opacity="1.00" d=" M 361.24 235.35 C 364.23 233.83 361.34 238.70 361.24 235.35 Z" />
<path fill="#ffffff" opacity="1.00" d=" M 457.22 235.12 C 457.94 234.37 460.92 234.92 459.37 236.15 C 458.16 237.29 454.27 236.44 457.22 235.12 Z" />
<path fill="#ffffff" opacity="1.00" d=" M 475.00 235.46 C 475.53 236.11 475.53 236.11 475.00 235.46 Z" />
<path fill="#ffffff" opacity="1.00" d=" M 124.39 236.70 C 125.75 236.31 127.08 235.86 128.40 235.37 L 128.49 236.35 C 129.45 236.37 131.38 236.41 132.34 236.43 C 131.13 236.81 128.70 237.58 127.49 237.96 C 131.18 238.02 134.79 237.25 138.41 236.65 C 137.03 237.38 135.64 238.10 134.24 238.79 C 136.12 238.69 137.97 238.45 139.81 238.06 L 139.69 240.56 C 137.92 240.47 136.15 240.43 134.37 240.44 L 134.53 239.60 C 128.82 238.91 123.14 238.13 117.37 238.72 C 119.72 237.95 122.18 237.63 124.64 237.43 L 124.39 236.70 Z" />
<path fill="#ffffff" opacity="1.00" d=" M 258.96 237.65 C 262.15 237.35 266.05 236.59 268.57 239.16 C 265.36 238.73 262.14 238.25 258.96 237.65 Z" />
<path fill="#ffffff" opacity="1.00" d=" M 140.21 237.98 C 143.07 236.13 140.64 241.31 140.21 237.98 Z" />
<path fill="#ffffff" opacity="1.00" d=" M 367.77 238.27 C 370.87 236.63 368.00 241.56 367.77 238.27 Z" />
<path fill="#ffffff" opacity="1.00" d=" M 139.86 239.78 C 142.56 239.62 145.20 239.05 147.78 238.25 C 147.46 238.80 146.83 239.89 146.52 240.43 C 144.31 240.51 140.18 243.54 139.86 239.78 Z" />
<path fill="#ffffff" opacity="1.00" d=" M 263.73 240.57 L 263.24 239.27 C 264.70 239.93 267.11 239.08 268.06 240.67 C 261.29 242.11 254.18 242.21 247.33 241.37 C 252.80 241.21 258.29 241.37 263.73 240.57 Z" />
<path fill="#ffffff" opacity="1.00" d=" M 150.34 288.55 C 153.54 288.64 156.80 288.25 159.96 288.86 C 164.57 290.57 164.65 298.12 160.04 299.86 C 156.84 300.32 153.58 300.04 150.36 300.03 C 150.36 296.20 150.38 292.38 150.34 288.55 Z" />
<path fill="#ffffff" opacity="1.00" d=" M 184.40 288.56 C 187.59 288.66 190.88 288.19 194.02 288.89 C 198.63 290.67 198.61 298.17 193.97 299.88 C 190.79 300.33 187.56 300.06 184.37 300.04 C 184.39 296.22 184.38 292.39 184.40 288.56 Z" />
<path fill="#ffffff" opacity="1.00" d=" M 522.29 288.56 C 525.52 288.67 528.83 288.19 532.02 288.87 C 536.71 290.59 536.70 298.30 531.93 299.87 C 528.74 300.33 525.50 300.05 522.30 300.03 C 522.26 296.20 522.29 292.38 522.29 288.56 Z" />
<path fill="#ffffff" opacity="1.00" d=" M 492.59 290.06 C 492.78 290.13 493.16 290.27 493.35 290.34 C 495.09 293.95 496.42 297.73 498.01 301.41 C 494.59 301.40 491.17 301.41 487.76 301.39 C 489.36 297.61 490.80 293.76 492.59 290.06 Z" />
<path fill="#ffffff" opacity="1.00" d=" M 115.82 301.39 C 117.49 297.30 119.22 293.25 120.99 289.21 C 122.71 293.27 124.40 297.35 126.07 301.43 C 122.65 301.41 119.24 301.42 115.82 301.39 Z" />
</g>
<g id="#f10301ff">
<path fill="#f10301" opacity="1.00" d=" M 237.87 98.30 C 249.41 96.01 261.52 95.40 272.99 98.39 C 287.15 102.25 300.04 110.93 308.48 122.99 C 318.06 107.45 335.94 98.35 353.95 97.74 C 369.01 97.54 384.62 100.31 397.47 108.57 C 406.26 113.98 413.56 121.76 418.25 130.96 C 423.05 118.26 433.32 107.90 445.82 102.67 C 453.15 99.48 461.10 97.85 469.09 97.68 C 486.08 97.68 503.70 101.90 517.05 112.86 C 530.56 123.50 538.34 140.81 537.61 157.97 C 537.27 171.52 531.02 184.86 520.51 193.49 C 515.02 198.63 507.92 201.32 501.19 204.39 C 489.54 208.97 477.12 211.04 465.26 214.97 C 465.37 215.63 465.60 216.94 465.71 217.59 C 468.06 217.68 470.54 217.62 472.54 216.20 C 472.51 216.54 472.43 217.23 472.39 217.57 C 474.20 217.45 476.02 217.35 477.85 217.27 C 475.97 217.76 474.09 218.25 472.22 218.73 C 475.70 218.81 479.20 218.66 482.65 218.23 C 481.65 218.72 479.63 219.69 478.62 220.18 C 481.53 220.02 484.42 219.58 487.29 219.07 C 486.03 219.68 484.78 220.27 483.53 220.86 C 487.16 221.18 490.68 222.20 494.29 222.68 C 498.02 223.15 501.53 221.49 505.02 220.46 C 498.95 223.30 491.83 225.05 485.38 222.33 C 485.40 223.44 485.41 224.54 485.42 225.65 C 486.06 225.64 487.33 225.63 487.96 225.62 C 492.22 227.44 496.96 227.17 501.49 227.50 C 495.44 229.56 489.13 227.57 483.00 227.16 C 477.58 225.21 471.72 224.52 465.99 224.60 C 461.07 224.73 455.81 229.30 451.29 225.27 L 451.37 228.51 C 452.25 228.56 454.02 228.65 454.91 228.70 C 454.38 229.25 453.33 230.35 452.80 230.90 C 455.23 230.55 457.72 230.36 460.18 230.54 C 459.90 231.14 459.33 232.34 459.05 232.95 C 462.83 232.65 467.09 231.23 470.56 233.31 C 470.23 232.35 469.71 231.55 469.00 230.92 C 466.58 230.88 464.18 231.24 461.77 231.18 C 461.60 230.80 461.25 230.03 461.07 229.64 C 464.64 229.53 468.60 229.01 471.66 231.31 C 474.88 230.72 478.14 230.43 481.41 230.12 C 479.73 230.80 477.83 231.11 476.46 232.39 C 478.11 232.20 481.41 231.84 483.06 231.66 C 481.34 233.59 478.55 232.95 476.30 233.29 C 479.40 233.96 482.53 234.93 485.74 234.80 C 485.76 234.56 485.82 234.09 485.85 233.85 L 482.16 233.92 C 483.85 232.79 485.89 232.57 487.85 232.19 C 487.70 232.54 487.39 233.26 487.24 233.61 C 489.68 233.94 492.13 234.29 494.56 234.76 C 492.24 235.91 489.60 234.75 487.18 235.27 C 491.45 237.43 496.74 236.42 501.44 236.40 C 502.49 234.00 499.11 234.76 497.70 234.54 C 502.66 233.57 507.56 232.14 512.19 230.08 C 509.07 232.14 505.52 233.45 501.84 234.07 C 503.05 234.65 504.32 235.13 505.62 235.54 C 509.21 233.43 513.24 232.22 516.90 230.24 C 510.04 235.56 501.57 239.25 492.73 238.59 C 491.46 239.16 490.17 239.73 488.89 240.27 C 489.70 239.49 490.53 238.71 491.36 237.94 C 487.80 238.48 484.34 239.48 480.83 240.23 C 482.11 239.38 483.39 238.52 484.67 237.63 C 481.74 238.04 478.83 238.61 475.88 238.89 C 477.29 238.16 478.69 237.42 480.09 236.68 C 476.52 236.87 473.08 238.22 469.47 237.79 C 470.99 237.31 472.52 236.86 474.07 236.46 C 471.17 236.35 468.28 236.41 465.39 236.42 L 465.68 237.36 C 459.39 238.42 453.23 240.09 446.95 241.15 C 447.68 241.37 449.15 241.82 449.89 242.04 L 449.90 242.70 L 449.83 243.17 C 446.39 243.40 442.95 243.35 439.53 242.95 L 439.21 244.48 C 440.78 244.29 442.36 244.12 443.95 243.97 L 442.96 246.24 C 447.23 245.79 451.50 245.37 455.81 245.32 C 450.25 247.66 443.96 247.99 438.14 246.57 C 434.94 245.77 432.30 243.68 429.44 242.16 L 429.76 241.68 C 428.63 241.44 427.74 240.84 427.09 239.90 C 420.94 232.51 420.72 221.78 424.28 213.19 C 427.75 204.97 434.03 198.12 441.48 193.29 C 448.07 188.76 455.58 185.88 462.94 182.86 C 473.59 178.87 485.14 177.05 494.92 170.94 C 499.97 168.25 503.90 162.88 503.85 157.02 C 504.22 148.28 498.59 139.98 490.89 136.14 C 480.93 131.24 468.65 130.42 458.58 135.45 C 454.96 137.07 451.75 140.03 450.77 143.99 C 448.62 149.03 449.67 154.65 448.20 159.85 C 447.41 161.69 448.37 163.43 449.07 165.11 C 447.43 168.09 447.22 173.04 443.14 173.69 C 435.56 176.56 428.30 171.13 423.27 165.96 C 420.45 180.06 411.17 192.70 398.44 199.39 C 392.43 202.25 386.43 205.26 379.99 207.05 C 370.77 210.05 361.10 211.56 352.05 215.09 C 351.91 215.71 351.61 216.95 351.47 217.57 C 350.21 217.38 348.95 217.20 347.70 217.03 C 348.59 217.84 349.52 219.64 351.00 218.76 C 353.74 217.74 356.58 216.93 359.55 217.28 C 358.18 217.85 356.77 218.33 355.38 218.84 C 357.95 218.51 360.56 218.47 363.13 218.84 C 368.91 220.47 374.83 221.56 380.70 222.82 C 380.76 222.32 380.90 221.31 380.96 220.81 C 381.05 221.37 381.23 222.48 381.32 223.04 C 385.03 222.66 388.59 221.56 392.10 220.38 C 386.02 223.05 378.81 225.21 372.40 222.34 C 372.39 223.44 372.37 224.54 372.35 225.64 C 373.00 225.64 374.30 225.66 374.94 225.66 C 378.76 227.53 383.31 227.39 387.45 227.13 C 384.82 224.66 380.88 226.18 377.66 225.39 C 381.56 224.92 385.65 225.11 389.22 226.90 C 385.07 228.61 380.34 228.90 375.99 227.87 C 373.96 227.58 371.93 227.39 369.90 227.20 C 364.49 225.44 358.77 224.53 353.08 224.54 C 348.25 224.49 343.66 228.55 338.86 226.25 C 335.51 224.47 334.91 220.33 335.37 216.91 C 333.65 220.07 335.12 224.05 337.57 226.39 C 337.60 227.07 337.66 228.44 337.70 229.12 C 337.02 229.32 335.67 229.73 334.99 229.93 C 336.99 231.33 339.09 231.60 341.30 230.72 C 342.11 231.22 342.93 231.72 343.75 232.22 C 343.60 231.68 343.29 230.58 343.13 230.03 C 344.77 230.35 346.41 230.66 348.06 230.96 C 347.22 231.41 345.55 232.29 344.71 232.74 C 351.07 232.06 357.45 232.32 363.77 233.27 C 362.36 231.37 360.06 231.60 358.02 232.11 C 358.05 231.78 358.13 231.14 358.16 230.82 C 360.00 230.75 361.83 230.65 363.67 230.51 C 363.82 231.00 364.10 232.00 364.25 232.49 C 366.54 231.92 368.88 231.49 371.22 231.14 C 370.59 231.61 369.33 232.55 368.70 233.03 C 369.97 232.87 372.51 232.55 373.78 232.39 L 373.32 233.67 C 375.97 233.83 378.63 233.80 381.29 233.71 C 380.80 234.18 379.84 235.11 379.36 235.58 C 376.30 235.18 373.26 234.62 370.34 233.64 C 369.64 234.08 368.96 234.52 368.28 234.97 C 374.00 235.26 379.57 237.46 385.36 236.47 C 391.39 236.22 396.65 233.16 402.17 231.11 C 395.40 236.24 386.80 239.45 378.22 238.41 L 378.59 239.65 C 376.93 239.48 375.26 239.31 373.61 239.14 L 374.77 241.00 C 374.14 240.77 372.88 240.31 372.25 240.07 L 372.32 242.28 C 376.41 242.17 380.37 243.25 384.37 243.89 C 378.97 244.76 373.62 242.92 368.30 242.28 L 368.87 241.25 C 366.36 241.33 363.64 242.00 361.32 240.69 C 357.21 240.22 353.01 239.40 348.92 240.43 C 345.31 241.30 341.69 242.16 338.02 242.76 C 337.48 242.11 336.94 241.45 336.41 240.80 C 342.40 241.07 347.96 237.90 353.96 238.53 C 356.97 238.86 360.01 239.31 362.90 240.28 C 363.86 240.34 365.77 240.45 366.73 240.51 L 366.93 238.31 C 365.69 238.48 363.21 238.82 361.97 238.99 C 363.28 238.27 364.59 237.52 365.87 236.75 C 362.29 237.23 358.71 238.23 355.08 237.51 C 356.85 237.08 358.65 236.74 360.42 236.27 C 357.86 236.19 355.32 236.35 352.78 236.59 C 346.86 238.89 340.42 239.85 334.13 240.48 C 334.54 240.76 335.38 241.33 335.80 241.62 C 335.96 242.05 336.27 242.92 336.43 243.36 C 333.07 243.27 329.71 243.35 326.36 243.05 L 326.29 244.07 C 327.91 244.20 331.15 244.45 332.77 244.58 C 329.59 245.80 326.38 244.68 323.21 244.22 C 327.05 246.49 331.82 245.44 336.07 246.08 C 343.94 244.93 351.69 242.63 359.75 243.15 L 359.78 243.82 C 348.60 242.47 338.10 249.01 326.91 247.06 C 319.79 245.64 312.77 241.04 310.11 234.05 C 308.18 229.66 308.17 224.76 308.62 220.08 C 300.26 229.83 290.13 238.45 277.91 242.90 C 281.64 239.65 286.52 238.27 290.51 235.41 C 297.30 231.40 302.43 225.32 308.16 220.02 C 309.72 216.29 310.83 212.36 312.88 208.85 C 316.79 202.23 322.38 196.68 328.92 192.65 C 341.57 184.69 356.10 180.60 370.25 176.23 C 377.45 173.18 386.04 170.13 389.29 162.32 C 391.97 154.99 389.27 146.48 383.93 141.04 C 379.82 136.55 373.95 134.22 368.12 132.95 C 359.37 130.92 349.70 132.21 342.13 137.16 C 336.76 140.86 335.69 147.98 335.60 154.03 C 335.69 157.78 332.99 161.59 335.51 165.06 C 334.32 167.65 333.77 170.69 331.78 172.82 C 328.16 174.65 323.93 174.99 320.11 173.55 C 317.98 180.57 315.04 188.60 308.04 192.08 C 305.56 193.69 303.25 191.01 301.02 190.12 C 299.68 190.21 298.36 190.27 297.03 190.31 C 294.25 186.58 290.38 183.60 288.68 179.13 C 287.06 174.26 286.78 169.07 286.65 163.97 C 286.18 152.84 281.00 141.75 271.89 135.12 C 266.70 130.73 259.51 130.06 252.98 130.40 C 241.69 130.99 230.44 136.71 224.34 146.41 C 213.81 162.68 213.90 184.42 222.71 201.42 C 228.05 210.17 236.80 216.94 246.89 219.11 C 246.00 219.72 245.11 220.35 244.23 220.98 C 249.99 221.90 255.80 222.33 261.61 221.57 L 261.23 220.28 C 262.64 220.43 264.06 220.57 265.48 220.72 L 265.12 219.55 C 267.08 219.69 269.02 219.38 270.96 219.18 C 270.44 218.53 269.39 217.22 268.86 216.56 C 269.45 216.97 270.63 217.79 271.22 218.19 C 276.81 215.79 281.49 211.86 286.13 208.01 C 283.69 210.65 281.03 213.05 278.55 215.65 C 279.49 215.40 281.37 214.92 282.31 214.68 C 281.15 215.57 280.00 216.49 279.03 217.60 C 283.24 217.87 285.77 213.75 289.07 211.80 C 285.41 217.00 279.73 220.36 274.42 223.68 L 274.62 224.22 C 272.11 224.62 269.69 225.44 267.36 226.46 C 266.58 226.00 265.80 225.53 265.03 225.07 L 269.22 223.82 C 265.67 223.76 262.15 223.19 258.60 223.21 C 260.47 223.76 262.39 224.01 264.31 224.32 C 259.19 225.27 253.26 227.17 248.47 224.41 C 251.67 224.37 254.88 224.65 258.08 224.49 C 252.69 223.56 247.20 223.43 241.84 222.30 C 242.82 222.61 244.78 223.22 245.76 223.53 L 245.80 224.68 C 245.01 224.60 243.42 224.45 242.63 224.37 C 248.85 226.81 255.69 227.18 262.21 225.78 C 263.66 225.14 264.84 226.38 266.06 226.91 C 255.85 229.38 244.55 229.07 235.22 223.85 C 234.77 223.56 233.88 222.97 233.43 222.68 C 233.92 223.89 234.39 225.10 234.86 226.33 C 233.25 225.67 231.64 224.99 230.05 224.30 C 232.43 225.62 234.33 228.35 237.43 227.51 C 237.24 227.96 236.86 228.85 236.67 229.30 L 238.87 225.91 C 238.72 230.47 243.90 230.14 246.82 231.46 L 246.68 232.06 C 245.92 232.20 244.40 232.49 243.64 232.63 C 247.19 232.67 250.65 231.26 254.21 232.40 C 253.01 232.82 251.82 233.25 250.64 233.68 C 252.76 233.73 254.87 233.84 256.99 233.95 L 257.92 233.94 L 258.81 233.89 L 258.25 232.55 C 262.36 232.74 266.20 230.70 270.35 232.00 L 268.09 230.10 C 269.08 230.37 271.07 230.91 272.06 231.18 C 271.88 230.69 271.52 229.70 271.34 229.21 C 273.72 230.47 275.92 229.40 277.92 227.99 C 281.73 226.32 284.89 223.54 288.61 221.70 C 283.90 227.21 277.01 229.96 270.42 232.47 C 267.85 233.51 264.90 230.77 262.61 232.84 C 263.61 232.85 265.60 232.89 266.59 232.90 L 266.64 234.14 C 264.83 234.10 263.04 233.93 261.26 233.65 C 261.03 234.19 260.58 235.27 260.35 235.81 C 271.41 234.41 281.64 229.39 290.47 222.73 C 289.91 222.26 288.81 221.32 288.25 220.85 C 288.90 221.20 290.21 221.90 290.86 222.25 C 293.85 219.79 296.80 217.24 299.12 214.12 C 300.82 212.43 302.49 210.70 304.19 209.01 C 299.58 216.62 293.42 223.25 286.03 228.23 C 286.28 228.61 286.78 229.37 287.03 229.76 C 286.06 229.60 284.11 229.30 283.13 229.15 C 283.97 229.78 285.65 231.05 286.49 231.69 C 285.62 231.45 283.87 230.97 283.00 230.73 L 285.01 233.18 C 283.92 232.73 281.74 231.84 280.65 231.40 L 283.30 234.15 L 279.93 232.86 L 281.29 236.10 C 284.81 234.09 288.09 231.68 291.75 229.91 C 290.46 228.75 288.85 228.99 287.37 229.63 C 289.01 228.56 291.22 227.51 292.83 229.87 C 289.69 227.92 292.19 226.65 293.33 225.41 C 299.34 220.72 304.33 214.77 308.03 208.11 C 304.68 215.21 299.35 221.55 292.93 226.08 C 292.83 226.83 292.62 228.33 292.51 229.08 C 294.01 227.29 296.01 226.40 298.30 226.56 C 297.26 226.92 296.20 227.24 295.15 227.56 C 294.09 228.70 293.03 229.83 291.92 230.92 C 289.83 232.09 287.88 233.48 286.06 235.03 C 284.10 235.52 282.16 236.06 280.20 236.56 L 280.68 237.82 C 279.17 238.75 277.46 239.25 275.82 239.85 C 266.97 242.58 257.72 244.82 248.41 243.48 L 248.50 244.37 C 246.69 244.61 244.88 244.90 243.07 245.15 C 243.12 244.92 243.23 244.48 243.28 244.25 C 244.31 244.14 246.35 243.93 247.37 243.82 C 238.42 241.88 229.09 239.96 221.53 234.49 C 221.23 234.47 220.62 234.45 220.31 234.43 C 226.66 238.21 233.43 241.28 240.57 243.23 C 240.71 243.36 240.98 243.62 241.11 243.75 C 240.45 244.06 239.14 244.67 238.48 244.98 C 246.66 245.59 254.81 247.45 263.04 246.32 C 267.20 245.62 271.08 243.81 275.25 243.20 C 267.05 247.02 257.89 248.01 248.93 247.60 C 242.17 247.45 235.79 244.93 229.15 243.98 C 214.19 238.22 201.91 226.47 194.43 212.41 C 190.21 204.71 187.13 196.42 185.31 187.83 C 181.25 191.67 177.28 195.73 172.36 198.47 C 169.12 200.27 165.70 201.72 162.34 203.29 C 150.69 208.63 137.82 210.31 125.78 214.50 C 124.30 214.84 123.47 216.03 123.47 217.51 C 122.55 217.44 120.72 217.31 119.80 217.24 C 121.03 218.63 122.74 219.09 124.55 218.86 L 124.29 217.25 L 127.83 218.44 C 127.02 217.70 126.16 217.02 125.30 216.34 C 126.43 216.30 127.55 216.29 128.69 216.30 L 128.02 217.53 C 129.11 217.32 131.29 216.90 132.38 216.69 C 131.74 217.21 130.47 218.23 129.84 218.75 C 132.07 218.62 134.31 218.63 136.55 218.57 L 136.53 219.41 C 142.87 220.53 149.11 222.12 155.46 223.14 C 151.81 224.23 147.90 223.56 144.36 222.39 C 144.38 223.47 144.39 224.54 144.39 225.62 C 145.05 225.63 146.35 225.63 147.01 225.64 C 151.19 227.73 156.09 227.12 160.62 227.49 C 157.05 228.67 153.25 228.32 149.55 228.45 L 149.43 227.51 C 147.59 227.72 145.35 227.11 144.00 228.74 L 144.76 227.47 C 136.57 226.12 128.02 222.78 119.78 225.71 C 116.79 226.76 112.97 227.98 110.28 225.59 C 107.42 223.65 107.75 219.88 107.37 216.86 C 107.27 220.38 106.67 224.78 110.58 226.55 C 109.26 227.35 108.22 228.83 106.54 228.85 C 105.42 227.92 105.07 226.73 105.50 225.27 L 104.20 225.72 L 104.70 223.78 L 103.23 223.56 C 104.24 221.58 104.90 219.47 104.85 217.23 L 104.21 217.42 L 103.63 217.74 C 100.89 218.58 104.76 221.49 103.09 223.32 C 103.24 226.44 105.27 228.73 107.71 230.44 C 109.53 230.85 111.38 231.46 113.22 230.72 C 114.07 231.22 114.92 231.73 115.76 232.24 C 115.61 231.68 115.31 230.57 115.15 230.02 C 116.42 230.26 117.69 230.51 118.96 230.75 C 118.70 231.29 118.19 232.38 117.93 232.93 C 121.46 231.71 126.26 233.76 128.73 230.50 L 128.40 232.52 C 133.60 232.84 138.73 233.92 143.74 235.33 C 144.42 234.85 145.10 234.35 145.78 233.86 C 144.49 233.70 141.91 233.39 140.62 233.23 C 142.62 232.87 144.65 232.61 146.67 232.32 C 146.57 232.70 146.39 233.48 146.30 233.87 C 148.08 233.80 149.86 233.72 151.63 233.62 C 151.64 234.12 151.65 235.12 151.66 235.62 C 149.60 235.28 147.55 234.92 145.50 234.55 C 145.66 234.95 145.99 235.74 146.15 236.14 C 150.38 236.30 154.64 237.11 158.85 236.31 C 164.29 235.81 169.08 233.03 174.12 231.20 C 171.71 233.33 168.80 234.71 165.89 235.98 C 162.45 237.51 158.76 238.61 154.97 238.51 C 153.00 238.59 150.95 237.94 149.07 238.78 L 152.30 239.43 C 149.10 239.06 146.31 240.60 143.61 242.10 C 147.93 242.18 152.16 243.12 156.39 243.88 C 152.58 244.70 148.74 243.42 144.92 243.23 C 143.61 242.72 142.26 242.35 140.93 241.95 C 138.40 241.31 135.70 241.68 133.24 240.71 C 129.37 240.22 125.40 239.44 121.53 240.34 C 118.11 241.13 114.70 241.97 111.26 242.63 C 110.60 242.08 109.95 241.54 109.30 240.99 C 112.27 240.59 115.34 240.40 118.15 239.25 C 113.70 239.12 109.43 240.48 105.10 241.23 C 105.95 241.23 107.65 241.25 108.50 241.25 C 108.37 241.76 108.11 242.78 107.97 243.29 C 104.86 243.29 101.74 243.28 98.62 243.26 C 90.41 240.74 85.01 232.31 85.39 223.86 C 84.51 232.20 89.89 241.12 98.03 243.60 C 97.38 244.62 96.73 245.65 96.05 246.66 C 92.54 244.72 88.85 242.90 85.95 240.07 C 79.92 233.10 79.30 222.80 82.48 214.42 C 86.47 203.72 95.34 195.52 105.24 190.21 C 114.70 185.18 124.83 181.53 135.08 178.49 C 142.55 176.54 149.85 173.62 156.23 169.21 C 159.90 166.26 162.58 161.73 162.54 156.93 C 162.85 148.00 156.98 139.58 149.02 135.87 C 137.58 130.50 122.74 130.30 112.60 138.55 C 106.54 144.84 108.95 154.20 106.40 161.83 C 109.00 165.39 106.05 169.32 104.35 172.57 C 100.66 174.79 95.81 175.18 91.89 173.25 C 84.42 169.78 78.10 163.20 75.87 155.15 C 72.54 143.66 75.40 130.98 81.99 121.18 C 91.59 106.63 108.87 98.45 126.02 97.75 C 143.45 97.32 161.59 101.51 175.42 112.55 C 182.79 118.39 188.57 126.10 192.18 134.77 C 201.11 116.68 218.18 102.86 237.87 98.30 M 462.11 216.76 C 461.03 218.56 464.91 220.14 465.48 218.19 C 464.88 217.11 463.29 216.36 462.11 216.76 M 239.22 217.83 C 239.63 219.41 242.12 219.78 243.59 220.03 C 243.59 219.73 243.60 219.12 243.60 218.82 C 242.24 218.29 240.70 217.43 239.22 217.83 M 123.60 220.64 C 126.56 221.32 129.66 221.11 132.57 220.30 C 129.58 220.13 126.57 220.25 123.60 220.64 M 353.27 220.16 C 354.36 221.46 358.49 221.17 359.76 220.08 C 357.81 219.31 355.19 219.31 353.27 220.16 M 466.30 220.18 C 467.45 221.35 471.58 221.24 472.80 220.12 C 470.86 219.28 468.21 219.29 466.30 220.18 M 118.63 221.19 C 117.94 221.97 118.19 223.29 118.56 224.18 C 120.12 225.15 121.56 222.28 120.36 221.25 C 119.93 221.23 119.06 221.21 118.63 221.19 M 134.34 221.56 C 134.32 223.00 136.88 222.75 137.68 222.03 C 137.70 220.59 135.14 220.91 134.34 221.56 M 361.35 220.92 C 361.80 222.44 364.37 222.76 365.64 222.04 C 365.01 220.78 362.61 220.32 361.35 220.92 M 473.77 221.18 C 476.21 221.93 478.72 222.35 481.20 222.94 C 480.42 223.04 478.85 223.23 478.07 223.32 C 473.48 222.13 468.76 221.26 464.01 221.73 L 464.01 222.67 C 471.09 222.23 477.92 224.58 484.95 224.73 L 484.52 223.43 L 481.12 224.12 C 482.28 223.34 483.48 222.62 484.68 221.88 C 483.84 222.05 482.17 222.40 481.33 222.58 L 481.47 221.57 C 478.90 221.41 476.34 221.19 473.77 221.18 M 121.37 222.31 C 125.12 222.79 128.92 222.75 132.65 223.42 L 132.57 221.74 C 128.86 221.98 124.96 221.04 121.37 222.31 M 140.34 221.92 C 140.54 223.28 141.26 223.56 142.51 222.78 C 142.31 221.43 141.58 221.15 140.34 221.92 M 346.67 223.17 C 345.71 223.66 344.76 224.16 343.83 224.68 C 346.28 224.38 348.63 223.58 350.89 222.60 C 353.76 222.64 356.61 222.99 359.47 223.10 L 360.47 221.94 C 357.28 221.73 354.09 221.65 350.91 221.68 C 350.10 222.06 348.47 222.83 347.66 223.21 L 347.13 220.03 C 347.02 220.81 346.79 222.39 346.67 223.17 M 368.46 222.05 C 368.66 223.44 369.36 223.73 370.57 222.92 C 370.36 221.53 369.66 221.24 368.46 222.05 M 133.41 222.70 L 132.99 223.36 C 136.52 224.05 140.08 224.93 143.70 224.54 C 140.54 222.91 136.76 223.77 133.41 222.70 M 360.59 223.35 C 364.14 224.22 367.80 224.78 371.48 224.65 C 368.06 223.14 364.24 223.24 360.59 223.35 M 104.60 232.58 C 107.68 232.89 110.77 232.76 113.85 232.55 C 110.79 232.17 107.63 231.86 104.60 232.58 M 445.38 232.60 C 448.63 232.95 451.91 232.82 455.18 232.61 C 451.93 232.21 448.61 231.92 445.38 232.60 M 472.70 232.99 C 474.27 233.32 475.41 233.01 476.12 232.07 C 475.27 232.02 473.57 231.94 472.72 231.89 C 472.72 232.17 472.71 232.72 472.70 232.99 M 365.30 233.54 C 365.90 233.84 367.11 234.43 367.72 234.73 C 368.38 234.02 368.21 233.36 367.20 232.77 C 366.72 232.96 365.77 233.35 365.30 233.54 M 120.30 234.57 C 121.61 235.79 125.03 235.78 126.85 235.06 C 125.60 233.40 122.22 234.23 120.30 234.57 M 348.28 234.84 C 350.47 235.43 353.15 235.89 355.34 235.08 C 353.80 233.76 349.92 233.81 348.28 234.84 M 462.21 234.82 C 464.11 235.45 466.45 235.80 468.38 235.07 C 467.30 233.69 463.46 233.88 462.21 234.82 M 133.33 235.37 C 133.43 238.72 136.33 233.84 133.33 235.37 M 256.27 235.58 C 257.39 236.41 258.53 236.44 259.69 235.68 C 259.74 234.34 256.13 234.24 256.27 235.58 M 269.35 235.30 C 270.82 235.69 272.29 236.12 273.77 236.57 C 273.76 236.88 273.76 237.50 273.76 237.82 C 273.14 237.67 271.91 237.37 271.29 237.23 C 271.35 237.59 271.48 238.30 271.54 238.66 C 270.88 238.80 269.57 239.08 268.92 239.22 C 270.26 241.17 272.48 239.53 274.26 239.32 C 274.78 239.09 275.82 238.63 276.34 238.41 C 277.34 237.61 278.66 237.07 279.22 235.84 C 277.85 235.36 275.11 234.39 273.74 233.91 C 274.37 234.79 275.64 236.54 276.28 237.41 C 275.14 236.71 274.04 235.98 272.93 235.26 C 272.04 235.27 270.24 235.29 269.35 235.30 M 361.24 235.35 C 361.34 238.70 364.23 233.83 361.24 235.35 M 457.22 235.12 C 454.27 236.44 458.16 237.29 459.37 236.15 C 460.92 234.92 457.94 234.37 457.22 235.12 M 475.00 235.46 C 475.53 236.11 475.53 236.11 475.00 235.46 M 124.39 236.70 L 124.64 237.43 C 122.18 237.63 119.72 237.95 117.37 238.72 C 123.14 238.13 128.82 238.91 134.53 239.60 L 134.37 240.44 C 136.15 240.43 137.92 240.47 139.69 240.56 L 139.81 238.06 C 137.97 238.45 136.12 238.69 134.24 238.79 C 135.64 238.10 137.03 237.38 138.41 236.65 C 134.79 237.25 131.18 238.02 127.49 237.96 C 128.70 237.58 131.13 236.81 132.34 236.43 C 131.38 236.41 129.45 236.37 128.49 236.35 L 128.40 235.37 C 127.08 235.86 125.75 236.31 124.39 236.70 M 258.96 237.65 C 262.14 238.25 265.36 238.73 268.57 239.16 C 266.05 236.59 262.15 237.35 258.96 237.65 M 140.21 237.98 C 140.64 241.31 143.07 236.13 140.21 237.98 M 367.77 238.27 C 368.00 241.56 370.87 236.63 367.77 238.27 M 139.86 239.78 C 140.18 243.54 144.31 240.51 146.52 240.43 C 146.83 239.89 147.46 238.80 147.78 238.25 C 145.20 239.05 142.56 239.62 139.86 239.78 M 263.73 240.57 C 258.29 241.37 252.80 241.21 247.33 241.37 C 254.18 242.21 261.29 242.11 268.06 240.67 C 267.11 239.08 264.70 239.93 263.24 239.27 L 263.73 240.57 Z" />
<path fill="#f10301" opacity="1.00" d=" M 109.18 229.00 C 109.68 227.71 112.00 228.20 112.80 229.03 C 112.22 230.21 109.93 229.94 109.18 229.00 Z" />
<path fill="#f10301" opacity="1.00" d=" M 244.36 229.10 C 245.24 228.35 247.49 228.77 247.56 230.06 C 246.67 230.83 244.35 230.48 244.36 229.10 Z" />
<path fill="#f10301" opacity="1.00" d=" M 119.54 231.07 C 121.40 228.37 125.14 229.99 127.87 229.70 C 127.79 230.09 127.65 230.88 127.58 231.27 C 124.90 231.14 122.22 231.16 119.54 231.07 Z" />
<path fill="#f10301" opacity="1.00" d=" M 346.67 230.00 C 350.03 229.31 353.46 229.58 356.86 229.76 C 356.14 230.33 355.41 230.89 354.67 231.44 C 351.98 231.11 349.21 231.04 346.67 230.00 Z" />
<path fill="#f10301" opacity="1.00" d=" M 129.47 231.33 C 131.50 230.94 133.57 230.70 135.63 230.40 L 135.53 231.81 C 137.67 231.80 139.81 231.72 141.96 231.68 C 141.21 232.26 140.43 232.81 139.63 233.34 C 137.78 232.85 135.93 232.44 134.07 232.02 C 132.53 231.81 130.99 231.58 129.47 231.33 Z" />
<path fill="#f10301" opacity="1.00" d=" M 452.15 240.88 C 455.79 240.21 459.38 239.31 463.02 238.64 C 467.25 237.90 471.40 239.41 475.62 239.61 L 475.30 240.50 C 477.37 240.37 479.47 240.38 481.54 240.63 C 479.83 241.59 477.82 241.83 475.95 241.19 C 470.46 239.69 464.59 239.38 459.14 241.23 C 456.90 241.52 454.38 243.11 452.27 241.78 C 452.24 241.56 452.18 241.10 452.15 240.88 Z" />
<path fill="#f10301" opacity="1.00" d=" M 117.94 244.42 C 122.60 243.04 127.54 243.03 132.34 243.39 C 128.31 244.18 124.09 243.40 120.09 244.58 C 112.89 246.66 105.41 247.71 97.91 247.33 C 97.81 246.80 97.61 245.75 97.51 245.22 C 99.97 245.42 102.44 245.68 104.87 246.15 C 109.21 245.41 113.67 245.56 117.94 244.42 Z" />
<path fill="#f10301" opacity="1.00" d=" M 97.47 244.83 C 101.49 243.44 105.91 244.52 110.08 244.39 C 105.90 244.84 101.67 245.09 97.47 244.83 Z" />
<path fill="#f10301" opacity="1.00" d=" M 75.00 286.88 L 76.74 287.02 C 76.73 290.59 76.74 294.15 76.71 297.72 C 81.67 297.77 86.63 297.75 91.59 297.73 C 91.58 294.14 91.59 290.55 91.58 286.96 L 93.36 286.98 C 93.37 294.86 93.36 302.74 93.37 310.62 L 91.60 310.64 C 91.57 306.86 91.58 303.09 91.57 299.31 C 86.63 299.35 81.69 299.30 76.75 299.33 C 76.73 303.27 76.81 307.21 76.59 311.15 C 75.50 310.86 74.98 310.18 75.03 309.13 C 74.91 301.71 75.05 294.29 75.00 286.88 Z" />
<path fill="#f10301" opacity="1.00" d=" M 119.27 289.11 C 119.63 288.29 120.85 285.38 121.70 287.31 C 125.40 294.95 128.42 302.94 131.76 310.75 C 131.27 310.71 130.30 310.62 129.81 310.58 C 128.76 308.03 127.67 305.50 126.63 302.95 C 122.84 302.86 119.04 302.86 115.25 302.92 C 113.69 305.68 113.68 310.15 110.12 311.13 C 112.88 303.67 116.23 296.45 119.27 289.11 M 115.82 301.39 C 119.24 301.42 122.65 301.41 126.07 301.43 C 124.40 297.35 122.71 293.27 120.99 289.21 C 119.22 293.25 117.49 297.30 115.82 301.39 Z" />
<path fill="#f10301" opacity="1.00" d=" M 148.59 286.93 C 152.58 287.12 156.67 286.51 160.60 287.34 C 166.16 289.33 166.90 297.88 161.84 300.86 C 158.27 302.52 154.17 301.45 150.37 301.73 C 150.35 304.69 150.36 307.65 150.38 310.61 L 148.59 310.68 C 148.59 302.76 148.56 294.84 148.59 286.93 M 150.34 288.55 C 150.38 292.38 150.36 296.20 150.36 300.03 C 153.58 300.04 156.84 300.32 160.04 299.86 C 164.65 298.12 164.57 290.57 159.96 288.86 C 156.80 288.25 153.54 288.64 150.34 288.55 Z" />
<path fill="#f10301" opacity="1.00" d=" M 182.61 286.92 C 186.74 287.16 191.03 286.38 195.05 287.50 C 200.54 289.88 200.72 298.79 195.16 301.19 C 191.71 302.26 187.99 301.57 184.44 301.72 C 184.39 304.67 184.38 307.63 184.38 310.59 L 182.63 310.74 C 182.60 302.80 182.61 294.86 182.61 286.92 M 184.40 288.56 C 184.38 292.39 184.39 296.22 184.37 300.04 C 187.56 300.06 190.79 300.33 193.97 299.88 C 198.61 298.17 198.63 290.67 194.02 288.89 C 190.88 288.19 187.59 288.66 184.40 288.56 Z" />
<path fill="#f10301" opacity="1.00" d=" M 214.10 286.67 C 214.65 286.89 215.76 287.32 216.32 287.53 C 219.24 291.49 221.47 295.92 224.41 299.88 C 227.11 295.74 229.53 291.41 232.40 287.40 C 232.95 287.21 234.05 286.83 234.60 286.64 C 231.89 291.80 228.24 296.38 225.49 301.50 C 224.88 304.49 225.32 307.61 225.24 310.65 L 223.45 310.64 C 223.36 307.59 223.70 304.50 223.23 301.49 C 220.40 296.42 216.88 291.77 214.10 286.67 Z" />
<path fill="#f10301" opacity="1.00" d=" M 273.44 287.12 C 273.72 287.06 274.29 286.94 274.58 286.88 C 280.30 293.61 285.55 300.73 291.20 307.52 C 291.29 300.70 291.25 293.87 291.23 287.05 C 291.67 287.00 292.57 286.89 293.02 286.84 C 292.88 295.01 293.38 303.20 292.72 311.36 C 289.77 309.30 287.93 306.15 285.67 303.45 C 282.17 299.17 278.87 294.72 275.19 290.59 C 275.13 297.20 275.14 303.82 275.19 310.44 C 274.75 310.53 273.86 310.72 273.41 310.82 C 273.40 302.92 273.30 295.01 273.44 287.12 Z" />
<path fill="#f10301" opacity="1.00" d=" M 312.44 286.96 C 317.63 286.94 322.81 286.95 328.00 286.95 L 328.00 288.55 C 323.41 288.55 318.82 288.56 314.23 288.53 C 314.20 291.61 314.20 294.69 314.23 297.77 C 318.24 297.79 322.26 297.79 326.28 297.80 L 326.25 299.29 C 322.24 299.26 318.23 299.25 314.23 299.31 C 314.20 302.52 314.20 305.74 314.21 308.96 C 318.82 309.06 323.44 309.03 328.05 309.03 C 328.18 309.42 328.45 310.19 328.58 310.58 C 323.21 310.75 317.83 310.65 312.46 310.67 C 312.46 302.76 312.50 294.86 312.44 286.96 Z" />
<path fill="#f10301" opacity="1.00" d=" M 343.57 286.53 C 344.07 286.76 345.07 287.21 345.57 287.44 C 348.73 294.31 351.47 301.38 354.45 308.33 C 356.22 304.64 357.80 300.85 359.39 297.08 C 357.96 293.63 356.41 290.22 355.18 286.69 C 358.77 287.86 358.63 292.60 360.41 295.43 C 362.32 292.67 362.16 287.84 365.75 286.74 C 364.49 290.25 362.97 293.67 361.56 297.12 C 363.19 300.89 364.76 304.68 366.53 308.39 C 369.54 301.37 372.27 294.23 375.45 287.30 C 375.96 287.13 376.98 286.78 377.49 286.61 C 374.25 294.69 370.68 302.64 367.29 310.66 C 366.88 310.66 366.07 310.67 365.66 310.67 C 363.95 306.67 362.27 302.65 360.53 298.66 C 358.70 302.58 357.03 306.58 355.39 310.58 C 354.94 310.60 354.06 310.63 353.61 310.64 C 350.36 302.57 346.62 294.69 343.57 286.53 Z" />
<path fill="#f10301" opacity="1.00" d=" M 413.63 286.60 C 414.94 286.76 415.93 287.39 416.59 288.50 C 419.06 292.29 421.38 296.19 423.82 300.00 C 426.70 295.83 428.97 291.20 432.16 287.26 C 432.67 287.10 433.69 286.77 434.20 286.61 C 431.38 291.60 427.93 296.20 425.15 301.20 C 424.31 304.37 424.94 307.75 424.69 311.00 C 424.31 310.85 423.56 310.55 423.19 310.40 C 422.66 307.46 423.31 304.41 422.73 301.49 C 419.93 296.39 416.35 291.75 413.63 286.60 Z" />
<path fill="#f10301" opacity="1.00" d=" M 451.03 286.92 C 456.02 287.10 461.04 286.65 466.02 287.14 C 466.29 287.46 466.83 288.09 467.10 288.41 C 462.33 288.69 457.56 288.51 452.80 288.55 C 452.77 291.62 452.78 294.68 452.75 297.75 C 456.99 297.85 461.23 297.67 465.47 297.94 C 464.89 298.85 464.10 299.29 463.09 299.25 C 459.65 299.35 456.21 299.22 452.77 299.29 C 452.79 302.55 452.78 305.81 452.76 309.07 C 457.49 309.00 462.22 308.98 466.94 309.11 C 466.90 309.51 466.82 310.31 466.78 310.71 C 461.54 310.63 456.31 310.67 451.08 310.70 C 450.94 302.77 451.02 294.84 451.03 286.92 Z" />
<path fill="#f10301" opacity="1.00" d=" M 492.24 286.95 C 492.60 286.98 493.30 287.04 493.66 287.06 C 497.17 294.87 500.35 302.84 503.71 310.71 C 503.22 310.69 502.24 310.64 501.75 310.61 C 500.73 308.03 499.63 305.48 498.59 302.92 C 494.81 302.87 491.03 302.88 487.25 302.90 C 485.66 305.63 485.65 310.13 482.09 311.06 C 485.19 302.92 488.73 294.93 492.24 286.95 M 492.59 290.06 C 490.80 293.76 489.36 297.61 487.76 301.39 C 491.17 301.41 494.59 301.40 498.01 301.41 C 496.42 297.73 495.09 293.95 493.35 290.34 C 493.16 290.27 492.78 290.13 492.59 290.06 Z" />
<path fill="#f10301" opacity="1.00" d=" M 520.54 286.93 C 525.47 287.57 531.79 285.17 535.55 289.43 C 539.09 293.41 537.07 300.21 531.96 301.70 C 533.88 304.73 535.89 307.71 537.70 310.81 C 534.04 310.63 533.27 306.12 531.21 303.76 C 529.73 300.21 525.24 302.25 522.31 301.74 C 522.30 304.69 522.28 307.65 522.29 310.61 L 520.56 310.68 C 520.53 302.76 520.58 294.85 520.54 286.93 M 522.29 288.56 C 522.29 292.38 522.26 296.20 522.30 300.03 C 525.50 300.05 528.74 300.33 531.93 299.87 C 536.70 298.30 536.71 290.59 532.02 288.87 C 528.83 288.19 525.52 288.67 522.29 288.56 Z" />
</g>
</svg>
